# xmcd
# Track frame offsets:
# 150
# 20125
# 32994
# 48587
# 62917
# 81508
# 96040
# 112203
# 128087
# 142043
# 158129
# 176814
#
# Disc length: 2563 seconds
# Revision: 0
# Processed by: cddbd v1.5.2PL0 Copyright (c) Steve Scherf et al.
# Submitted via: VisiTrax 2.11.1.266 - For more info visit www.synapsa.com
#
DISCID=b40a010c
DTITLE=Good Intentions, The - Poor Boy
DYEAR=2008
DGENRE=Country
TTITLE0=Poor Boy
TTITLE1=Last Train, The
TTITLE2=Irene
TTITLE3=Bonjour La Tristesse
TTITLE4=Archie Bleyer's Daughter
TTITLE5=She's in a George Jones Mood
TTITLE6=You Love Jimmie Rodgers
TTITLE7=You Can't Call It Country
TTITLE8=Tombstone Bride
TTITLE9=Soldier Boy
TTITLE10=You Had to Know
TTITLE11=From Liverpool to Nashville
EXTD=Boronda Records
EXTT0=
EXTT1=
EXTT2=
EXTT3=
EXTT4=
EXTT5=
EXTT6=
EXTT7=
EXTT8=
EXTT9=
EXTT10=
EXTT11=
PLAYORDER=
